<svg width="33" height="32" viewBox="0 0 33 32" fill="none" xmlns="http://www.w3.org/2000/svg">
<path fill-rule="evenodd" clip-rule="evenodd" d="M9.46118 13C9.46118 12.4477 9.9089 12 10.4612 12H23.4612C24.0135 12 24.4612 12.4477 24.4612 13C24.4612 13.5523 24.0135 14 23.4612 14H10.4612C9.9089 14 9.46118 13.5523 9.46118 13Z" fill="white"/>
<path fill-rule="evenodd" clip-rule="evenodd" d="M9.46118 17C9.46118 16.4477 9.9089 16 10.4612 16H23.4612C24.0135 16 24.4612 16.4477 24.4612 17C24.4612 17.5523 24.0135 18 23.4612 18H10.4612C9.9089 18 9.46118 17.5523 9.46118 17Z" fill="white"/>
<path fill-rule="evenodd" clip-rule="evenodd" d="M4.54697 5.58579C4.92204 5.21071 5.43075 5 5.96118 5H27.9612C28.4916 5 29.0003 5.21071 29.3754 5.58579C29.7505 5.96086 29.9612 6.46957 29.9612 7V26C29.9612 26.3466 29.7817 26.6684 29.4869 26.8507C29.1921 27.0329 28.824 27.0494 28.514 26.8944L24.9612 25.118L21.4084 26.8944C21.1269 27.0352 20.7955 27.0352 20.514 26.8944L16.9612 25.118L13.4084 26.8944C13.1269 27.0352 12.7955 27.0352 12.514 26.8944L8.96118 25.118L5.4084 26.8944C5.09841 27.0494 4.73027 27.0329 4.43545 26.8507C4.14063 26.6684 3.96118 26.3466 3.96118 26V7C3.96118 6.46957 4.1719 5.96086 4.54697 5.58579ZM27.9612 7L5.96118 7L5.96118 24.382L8.51397 23.1056C8.7955 22.9648 9.12687 22.9648 9.4084 23.1056L12.9612 24.882L16.514 23.1056C16.7955 22.9648 17.1269 22.9648 17.4084 23.1056L20.9612 24.882L24.514 23.1056C24.7955 22.9648 25.1269 22.9648 25.4084 23.1056L27.9612 24.382V7Z" fill="white"/>
</svg>
